<svg id="Layer_1" data-name="Layer 1" xmlns="http://www.w3.org/2000/svg" viewBox="0 0 84.03 111.86"><defs><style>.cls-1,.cls-4{fill:#fbb03b;}.cls-2{fill:#4d4d4d;}.cls-3{fill:#fff;}.cls-4{font-size:28.12px;font-family:Tahoma;font-weight:700;}</style></defs><title>Untitled-4 copy</title><polygon class="cls-1" points="42.01 0 55 26.31 84.03 30.52 63.02 51 67.98 79.91 42.01 66.26 16.05 79.91 21.01 51 0 30.52 29.03 26.31 42.01 0"/><polygon class="cls-2" points="10.76 66.64 28.36 18.56 47.26 8.81 67.97 21.07 68.53 42.33 34.86 80.9 10.76 66.64"/><path class="cls-1" d="M47.21,10.53L66.5,21.94,67,41.78,34.55,79l-22-13,17-46.36,17.64-9.1m0.1-3.43-1.47.76L28.19,17l-1,.54-0.4,1.1L9.78,65,8.93,67.3l2.15,1.27,22,13,2.15,1.27,1.64-1.88L69.28,43.75,70,42.87l0-1.17L69.5,21.86l0-1.66L68,19.36,48.74,7.94,47.31,7.1h0Z"/><polygon class="cls-3" points="57.12 38.2 49.34 33.6 53.94 25.82 49.75 23.34 45.15 31.12 37.97 26.87 35.85 30.46 43.03 34.71 29.22 58.05 33.41 60.52 47.22 37.19 54.99 41.79 57.12 38.2"/><text class="cls-4" transform="translate(8.08 105.8)">NEW</text></svg>