<svg id="Layer_1" data-name="Layer 1" xmlns="http://www.w3.org/2000/svg" viewBox="0 0 113.09 113.09"><defs><style>.cls-1{fill:#ccc;}.cls-2{fill:#4d4d4d;}</style></defs><title>Untitled-4 copy</title><path class="cls-1" d="M56.54,110.09a53.54,53.54,0,1,1,53.54-53.54A53.6,53.6,0,0,1,56.54,110.09Z"/><path class="cls-2" d="M56.54,6A50.54,50.54,0,1,1,6,56.54,50.54,50.54,0,0,1,56.54,6m0-6a56.54,56.54,0,1,0,56.54,56.54A56.61,56.61,0,0,0,56.54,0h0Z"/><path class="cls-2" d="M79.18,61.08h-18V78.94H51.9V61.08h-18V52h18V34.15h9.28V52h18v9.07Z"/></svg>